PathFileType	4	(X/Y/Z)	C:/Users/beibeiliu/ov580/test_trc/User3\sequence.38_training_dense_right.trc
DataRate	CameraRate	NumFrames	NumMarkers	Units	OrigDataRate	OrigDataStartFrame	OrigNumFrames
120	120	20	19	mm	120	60	89
Frame#	Time	ThumbCMC			ThumbMCP			ThumbIP			ThumbTip			IndexMCP			IndexPIP			IndexTip			MiddleMCP			MiddlePIP			MiddleTip			RingMCP			RingPIP			RingTip			PinkyMCP			PinkyPIP			PinkyTip			BackHand1			BackHand2			BackHand3	
		X0	Y0	Z0	X1	Y1	Z1	X2	Y2	Z2	X3	Y3	Z3	X4	Y4	Z4	X5	Y5	Z5	X6	Y6	Z6	X7	Y7	Z7	X8	Y8	Z8	X9	Y9	Z9	X10	Y10	Z10	X11	Y11	Z11	X12	Y12	Z12	X13	Y13	Z13	X14	Y14	Z14	X15	Y15	Z15	X16	Y16	Z16	X17	Y17	Z17	X18	Y18	Z18	
59	0.491667	185.539	23.621	-3.01242	192.62	27.2678	-40.1299	191.201	-0.742579	-58.0565	181.517	-22.3728	-59.5137	237.353	-3.31136	-50.8263	248.699	-11.791	-72.4151	258.406	-22.1601	-94.3204	234.59	-26.2041	-58.1603	247.313	-30.5781	-80.8365	260.36	-33.858	-104.955	219.998	-38.0613	-54.2564	230.971	-42.7521	-75.1281	241.029	-46.3726	-97.0826	199.56	-47.7959	-44.9351	209.537	-49.8828	-63.5717	221.912	-49.3553	-80.8915	201.37	-33.7877	-7.42718	185.449	-31.3167	22.6436	206.831	-4.09145	10.5216	
60	0.5	167.197	38.7642	-5.61085	173.423	38.1382	-40.4188	182.127	17.1791	-63.7403	184.321	-11.5834	-63.6838	227.246	28.4296	-58.5726	240.184	29.8365	-83.1004	252.314	26.7515	-104.29	230.471	11.9533	-61.401	241.305	14.6162	-86.3554	258.243	10.7034	-116.502	225.666	-7.55187	-62.3395	233.562	-6.96521	-81.223	245.544	-6.68385	-104.942	210.89	-25.7693	-49.6114	219.982	-17.7719	-70.0862	231.313	-21.6114	-85.8837	209.261	-11.4216	-9.30161	195.967	-13.4727	18.3688	203.34	21.0184	2.61587	
61	0.508333	146.155	41.3225	-13.5954	142.947	44.5753	-48.6504	160.412	25.8776	-72.5187	172.528	2.65604	-66.1723	194.768	55.2422	-65.6684	208.479	56.4826	-92.3829	215.824	61.6742	-113.123	208.767	36.1912	-71.256	216.669	46.6953	-98.7186	226.463	51.8423	-126.21	209.153	22.4987	-69.2749	216.949	25.3719	-88.4718	226.601	27.628	-113.465	206.03	2.68414	-59.2433	211.47	3.72783	-76.1231	222.18	13.5409	-98.4252	200.894	11.7485	-19.2482	192.445	6.04483	9.75722	181.12	41.9056	-4.96423	
62	0.516667	121.77	38.0324	-17.6586	118.139	37.9444	-52.2465	139.793	25.8899	-78.3136	158.288	7.8286	-74.9537	161.099	61.6625	-76.1456	167.976	67.0515	-100.412	173.741	75.9185	-126.136	180.92	55.2959	-85.7765	181.126	62.8674	-108.773	189.371	69.1833	-140.121	187.262	36.2489	-77.9126	189.644	46.7229	-102.883	196.995	50.9674	-129.066	192.805	16.4509	-66.9559	193.405	24.6951	-88.1991	196.587	33.659	-109.174	182.856	28.8922	-25.6626	181.476	20.5954	3.49491	157.215	47.9849	-15.4501	
63	0.525	103.123	28.9959	-23.6928	98.5249	26.0117	-56.5498	117.094	17.3881	-82.7051	144.701	3.22851	-80.4435	131.292	56.0858	-86.7497	129.848	65.5739	-114.284	137.781	65.8477	-138.771	150.187	52.8262	-94.0738	148.434	58.7911	-117.649	152.851	66.9541	-152.486	163.054	38.3621	-87.2964	163.959	44.6096	-111.741	165.122	49.108	-136.897	173.651	22.1903	-75.7667	170.107	27.899	-94.1624	173.51	35.9144	-117.026	165.389	37.1081	-37.965	164.876	29.2693	-5.30737	132.691	48.2741	-23.8193	
64	0.533333	90.2497	15.7704	-21.2288	82.6374	8.11129	-60.2462	99.28	-3.20583	-82.9311	130.072	-9.0525	-80.912	103.356	39.6226	-94.617	102.876	39.9463	-125.773	107.866	38.0345	-148.79	122.504	38.2092	-103.588	123.743	37.5043	-129.497	119.005	40.9416	-159.969	141.022	26.952	-96.2597	141.608	29.529	-124.26	138.285	29.8954	-144.65	154.197	15.6761	-82.6222	152.732	17.8618	-104.563	154.748	20.8473	-125.815	148.524	32.5216	-47.4735	151.287	32.3473	-14.9005	116.718	40.8427	-29.9665	
65	0.541667	78.9153	4.57699	-22.5966	73.9432	-12.8823	-52.6478	90.2836	-26.0435	-76.3031	117.78	-30.1801	-75.3972	88.6249	10.0419	-98.188	90.4013	0.836029	-126.075	89.8152	-4.30635	-147.014	110.714	8.69076	-110.936	106.093	1.67309	-131.809	99.4445	-4.20427	-160.345	123.373	2.45906	-101.464	121.434	-2.22185	-123.689	119.014	-7.75672	-149.18	140.509	-3.07616	-85.949	140.083	-7.84223	-108.57	137.297	-9.8584	-126.602	134.527	21.7866	-50.5825	136.603	28.124	-20.5841	104.561	31.577	-39.6367	
66	0.55	71.1714	-6.06972	-18.2927	66.4533	-31.6917	-40.9432	85.702	-49.5914	-64.454	112.183	-49.8499	-61.7618	79.8208	-24.8363	-94.791	74.9652	-36.7417	-114.079	76.3238	-51.1882	-138.17	98.4171	-25.2423	-101.436	94.4775	-40.3331	-122.776	90.5559	-56.486	-150.481	115.442	-29.1344	-97.5586	112.858	-41.101	-117.472	109.253	-52.556	-135.717	132.319	-27.309	-79.381	130.18	-36.7857	-94.8925	130.416	-47.4014	-118.477	126.546	5.03132	-56.393	129.367	18.6537	-28.1913	94.111	16.3249	-39.648	
67	0.558333	65.8394	-8.44542	-10.7526	60.6125	-38.7522	-29.0124	80.8152	-58.379	-46.505	104.411	-64.4088	-47.0586	71.3841	-43.4516	-81.9324	65.0117	-61.9888	-98.871	67.1682	-79.7198	-116.402	85.5976	-49.5408	-91.3372	84.2961	-66.5108	-105.844	78.7494	-87.052	-126.674	108.205	-47.6352	-81.1261	102.326	-64.3437	-97.78	98.5315	-83.3437	-115.481	126.51	-46.3828	-67.9367	117.615	-60.7481	-85.3472	118.252	-73.1342	-100.61	118.862	-6.674	-49.3747	127.513	13.1459	-26.9156	86.375	7.05756	-39.9395	
68	0.566667	66.7469	-1.48176	-4.81046	55.336	-30.4278	-18.2439	66.7937	-60.4897	-34.1285	93.9018	-68.0065	-34.8211	64.3454	-43.4155	-69.3687	58.2997	-63.4326	-84.2278	49.9649	-83.2183	-98.8682	80.3624	-55.8478	-80.9098	72.2135	-74.0275	-91.4147	61.5115	-97.3112	-109.29	99.4222	-57.579	-70.8032	88.6325	-73.8924	-83.448	79.5189	-95.4985	-100.368	114.753	-56.2413	-56.6897	106.961	-68.9799	-66.843	99.1298	-86.764	-85.571	115.708	-12.5632	-43.2055	127.575	4.8809	-25.6146	92.5334	5.29918	-36.1559	
69	0.575	75.392	9.38871	-6.48818	54.2342	-12.4808	-16.5028	59.7694	-45.4069	-29.8919	78.5887	-59.6217	-25.5272	56.3094	-34.0341	-67.6977	45.8053	-51.5284	-78.8633	35.753	-69.7176	-90.7616	71.2231	-47.5063	-72.3245	56.3123	-64.8221	-83.7475	43.1013	-90.3943	-97.8381	88.7473	-54.9932	-60.9853	73.7468	-69.6119	-72.8519	63.0547	-93.129	-87.0437	100.949	-57.2326	-48.1632	95.6289	-72.6728	-57.8038	83.5446	-86.8868	-71.1254	118.523	-19.6192	-39.2267	131.324	3.06902	-18.6463	98.4974	12.5689	-29.7894	
70	0.583333	86.3213	25.2486	-4.02129	58.6777	8.83238	-18.1725	49.2074	-22.2542	-28.3187	65.0763	-45.0574	-21.8789	57.8577	-18.8852	-65.8869	40.4613	-29.3223	-77.9586	21.7418	-45.2353	-90.9918	67.2232	-36.4867	-66.8223	46.0537	-43.6992	-78.8727	25.2478	-63.6044	-91.5489	75.475	-43.91	-54.9065	59.2301	-54.9591	-68.0623	39.7233	-68.8314	-81.1951	87.2223	-51.2234	-41.4927	73.104	-63.8179	-53.2215	61.2649	-70.3646	-64.6418	115.067	-23.0598	-31.4605	133.257	-8.20214	-13.5005	111.045	13.4824	-30.5481	
71	0.591667	98.0832	35.8433	-5.30956	66.2059	33.0751	-20.9238	52.2654	1.71745	-27.1953	54.2139	-25.0538	-19.0435	63.1387	2.93356	-65.9245	41.024	-7.06189	-78.4356	22.6597	-10.8421	-90.9666	59.7785	-16.1616	-67.6157	40.8484	-20.1796	-79.248	10.7809	-28.0174	-95.8664	64.77	-29.7582	-52.7477	47.0435	-38.1883	-63.9371	22.9772	-42.9424	-81.3993	73.1447	-40.4962	-32.8145	58.6792	-43.5405	-46.9283	43.1664	-50.0966	-59.5962	112.445	-22.039	-23.7733	132.914	-12.1116	-1.75813	119.44	14.6126	-21.8822	
72	0.6	109.953	38.7891	-1.10185	78.2687	42.5133	-23.2256	55.4295	19.9904	-28.8854	48.8047	-3.35067	-18.1406	70.3218	14.0299	-63.4422	45.3579	13.0648	-81.6539	24.7069	11.8874	-94.1232	58.9822	-2.54672	-65.4532	37.2282	-2.31968	-80.1954	13.512	2.72311	-97.2166	59.0932	-14.6684	-50.0749	38.0292	-13.0853	-66.9973	14.615	-16.5845	-80.2807	60.8061	-24.5301	-29.8634	42.1324	-24.0702	-47.5842	26.1698	-29.5305	-62.7117	101.992	-21.2145	-18.4154	119.172	-21.1289	1.74056	119.74	10.9056	-22.2723	
73	0.608333	115.062	33.583	-4.29024	90.4789	49.4009	-26.6736	61.9694	33.2315	-31.251	46.9456	14.5167	-22.4653	75.5907	19.484	-67.4289	58.052	26.6063	-86.9528	39.4511	27.9203	-100.844	60.493	7.17545	-67.4421	42.8315	13.4972	-81.8698	21.1627	22.3432	-103.676	54.6789	-2.00728	-50.998	33.9924	0.885543	-68.714	15.376	7.61918	-85.2643	48.6913	-11.4371	-30.4573	32.4718	-8.42043	-46.93	19.5957	-6.67023	-66.4826	89.026	-17.7087	-17.2526	107.252	-23.1193	8.46117	119.11	2.8148	-16.0547	
74	0.616667	120.163	24.1987	-4.67063	102.383	39.2688	-31.6763	73.521	35.1933	-39.7107	52.6857	21.7598	-29.47	85.3249	13.3561	-72.3	70.6812	19.552	-95.5698	53.7089	23.061	-110.152	66.7839	5.72808	-73.7385	50.9432	12.8579	-93.1004	36.9037	20.6476	-115.605	56.3118	-0.287378	-56.7464	39.2291	8.09077	-79.5583	28.3676	13.7918	-95.5856	46.7705	-3.34946	-37.3773	35.0974	3.45806	-57.6037	27.5935	7.16528	-76.4963	78.8841	-21.3101	-18.1027	95.0575	-27.1016	10.7239	114.264	-9.19716	-18.567	
75	0.625	128.362	9.86605	-8.60829	119.467	25.3628	-38.7787	90.4487	25.3842	-52.9251	61.2082	15.4209	-45.594	99.8056	-6.51803	-79.2928	90.7852	-3.21117	-102.638	81.2247	-1.44468	-124.486	84.3591	-12.0836	-78.5375	73.6348	-6.52906	-105.616	61.3613	-2.09698	-134.316	65.5941	-10.9124	-69.6575	60.6196	-6.67375	-87.4861	49.254	-1.43023	-111.561	55.5058	-9.66162	-46.3159	48.4789	-5.36863	-64.8341	42.7165	-4.60365	-88.5691	79.9363	-29.2036	-20.3575	89.8967	-31.9108	9.92082	118.743	-24.5938	-17.7045	
76	0.633333	140.933	-9.9319	-7.80614	134.987	-2.45195	-45.1833	108.99	-2.93511	-60.888	80.8086	-7.05986	-58.7236	121.945	-41.7428	-73.7057	121.343	-44.8816	-102.347	108.53	-48.3307	-128.468	106.366	-47.2307	-80.789	99.5494	-48.9641	-107.113	96.3406	-49.7676	-135.867	90.1461	-41.8891	-70.5165	83.9967	-43.9266	-97.0607	78.9258	-43.2241	-119.948	75.7175	-34.8153	-53.9443	72.1176	-35.448	-74.0763	72.2837	-38.9214	-98.671	95.3874	-47.3908	-16.8754	95.0735	-49.5996	8.25169	128.641	-44.3833	-7.8516	
77	0.641667	158.179	-26.6323	-6.09359	154.475	-22.0424	-39.9311	132.328	-28.5234	-62.2117	103.498	-34.5102	-61.1353	152.543	-72.0319	-70.7192	149.926	-78.7755	-94.5405	142.582	-87.3024	-117.455	132.532	-78.2701	-74.2985	134.408	-83.9886	-98.6418	129.078	-93.4389	-127.973	113.128	-75.0675	-70.4854	116.819	-77.8616	-89.914	115.277	-83.6614	-113.874	95.6415	-64.486	-54.3503	96.9656	-68.528	-76.117	99.1594	-75.1014	-99.0834	114.438	-68.8502	-16.3135	111.078	-64.6319	11.1697	144.103	-61.7701	-3.86925	
78	0.65	175.847	-34.8869	0.380815	175.999	-32.899	-36.3182	152.683	-49.0413	-62.2033	126.836	-57.4025	-54.06	177.663	-85.4243	-56.5639	183.398	-98.1699	-81.9579	178.272	-109.727	-104.671	162.579	-96.3248	-60.3465	162.929	-108.164	-86.2965	167.25	-119.269	-114.223	142.463	-95.3607	-60.08	144.79	-105.042	-81.9374	148.193	-111.681	-105.621	124.791	-87.5568	-50.9026	125.338	-93.125	-67.0799	133.206	-101.699	-86.0352	139.549	-85.8603	-7.24274	137.023	-77.5034	21.3457	167.258	-72.3511	3.60147	
